<?xml version="1.0"?>
<svg width="140" height="190" xmlns="http://www.w3.org/2000/svg" xmlns:svg="http://www.w3.org/2000/svg" xmlns:xlink="http://www.w3.org/1999/xlink" version="1.0">
 <defs id="defs3">
  <linearGradient id="linearGradient8308">
   <stop id="stop8314" offset="0" stop-color="#830007"/>
   <stop id="stop8316" offset="1" stop-color="#f00"/>
  </linearGradient>
  <linearGradient id="linearGradient2481" x1="0.1" x2="0.88" xlink:href="#linearGradient8308" y1="0.09" y2="0.88"/>
  <linearGradient id="linearGradient4520" x1="0" x2="0.79" y1="0.32" y2="0.68">
   <stop id="stop2062" offset="0" stop-color="#ebf0d0"/>
   <stop id="stop2064" offset="1" stop-color="#ffffeb"/>
  </linearGradient>
  <linearGradient id="linearGradient4522" x1="0.89" x2="0.19" xlink:href="#linearGradient8308" y1="0.95" y2="0.07"/>
  <linearGradient id="linearGradient4524" x1="0.1" x2="0.95" xlink:href="#linearGradient8308" y1="0.06" y2="0.91"/>
 </defs>
 <metadata>image/svg+xmlOpenclipartCard backs: suits red2009-03-23T14:04:42playing card backs for the &quot;Ornamental&quot;, &quot;White&quot;, &quot;Simple&quot; and &quot;Bordered&quot; setshttp://openclipart.org/detail/23046/card-backs:-suits-red-by-nicubununicubunubordered deckcardcardsclip artclipartdeckgamblinggameimagemediaornamental deckplayplaying cardspngpublic domainsimple decksvgwhite deck</metadata>
 <g class="layer">
  <title>Layer 1</title>
  <g id="g4503">
   <g id="g4505">
    <path d="m21,5l103,0c8.86,0 16,7.14 16,16l0,153c0,8.86 -7.14,16 -16,16l-103,0c-8.86,0 -16,-7.14 -16,-16l0,-153c0,-8.86 7.14,-16 16,-16z" fill-opacity="0.5" id="path4507"/>
    <path d="m17,1l103,0c8.86,0 16,7.14 16,16l0,153c0,8.86 -7.14,16 -16,16l-103,0c-8.86,0 -16,-7.14 -16,-16l0,-153c0,-8.86 7.14,-16 16,-16z" fill="#fff" id="path4509"/>
    <path d="m19,3l103,0c8.86,0 16,7.14 16,16l0,153c0,8.86 -7.14,16 -16,16l-103,0c-8.86,0 -16,-7.14 -16,-16l0,-153c0,-8.86 7.14,-16 16,-16z" fill="#c7891f" id="path4511"/>
    <path d="m18,2l103,0c8.86,0 16,7.14 16,16l0,153c0,8.86 -7.14,16 -16,16l-103,0c-8.86,0 -16,-7.14 -16,-16l0,-153c0,-8.86 7.14,-16 16,-16z" fill="url(#linearGradient4520)" id="path4513"/>
   </g>
   <path d="m22.17,10l94.41,0c8.13,0 14.67,6.54 14.67,14.67l0,140.25c0,8.12 -6.54,14.66 -14.67,14.66l-94.41,0c-8.13,0 -14.67,-6.54 -14.67,-14.66l0,-140.25c0,-8.13 6.54,-14.67 14.67,-14.67z" fill="url(#linearGradient4522)" id="path4515"/>
   <path d="m22.16,9.38c-8.47,0 -15.29,6.82 -15.29,15.28l0,140.25c0,8.46 6.82,15.31 15.29,15.31l94.43,0c8.46,0 15.29,-6.85 15.29,-15.31l0,-140.25c0,-8.47 -6.83,-15.29 -15.29,-15.29l-94.43,0l0,0.01zm0,1.25l94.43,0c7.79,0 14.03,6.24 14.03,14.03l0,140.25c0,7.79 -6.24,14.06 -14.03,14.06l-94.43,0c-7.79,0 -14.03,-6.27 -14.03,-14.06l0,-140.25c0,-7.8 6.24,-14.04 14.03,-14.04l0,0.01z" fill="url(#linearGradient4524)" id="path4517"/>
   <path d="m38.91,21.25c-5.73,0 -10.38,7.01 -10.38,15.66c0,7.36 9.43,19.74 9.06,25.62c-3.03,1.68 -12.38,-13.81 -17.21,-13.81c-5.73,0 -10.38,7.01 -10.38,15.66s4.65,15.65 10.38,15.65c4.96,0 13.47,-15.52 17.21,-14.12c0.07,2 -0.13,20.51 -1.18,21.84c-2.28,2.88 -5.16,2.69 -5.16,2.69l0.06,3.15l15.07,-0.09l0.06,-3.16s-2.85,0.23 -5.13,-2.65c-1.05,-1.33 -1.52,-21.02 -1.53,-21.66l0.1,0l0,0.03c3.66,-1.37 12.47,14.25 17.4,14.25c5.73,0 10.38,-7.01 10.38,-15.65s-4.65,-15.66 -10.38,-15.66c-4.81,0 -13.54,15.26 -17.37,13.69c0.05,-6.03 9.37,-18.43 9.37,-25.78c0,-8.65 -4.65,-15.66 -10.37,-15.66zm59.59,3.91c-8.86,17.71 -15.33,26.86 -28.66,36.62c12.61,9.64 21.51,19.61 28.91,35.72c6.61,-15.3 14.7,-26.7 28.75,-36.19c-14.13,-7.19 -22.3,-18.61 -29,-36.15zm-73.37,73.59c-1.72,0.01 -3.6,0.45 -5.69,1.41c-22.8,17.71 7.93,46.28 20.9,70.81l0.38,0.12c14.26,-26.81 41.39,-56.31 20.65,-70.93c-16.43,-7.48 -20.81,17.38 -20.96,18.28c-0.14,-0.79 -3.5,-19.77 -15.29,-19.69l0.01,0zm73.87,0.16c-10.58,16.81 -43.02,45.47 -22.47,54.31c12.48,4.07 18.42,-4.27 20.94,-9.78l0.5,0c-0.02,1.03 -0.49,21.3 -1.81,22.5c-2.9,2.63 -6.57,2.44 -6.57,2.44l0.07,2.87l19.22,-0.09l0.06,-2.82s-3.63,0.17 -6.53,-2.46c-1.33,-1.21 -1.83,-21.45 -1.85,-22.47l0.22,0c2.03,4.5 9.74,13.83 18.22,10.28c24.79,-9.96 -11.71,-38.32 -20,-54.78z" fill="url(#linearGradient2481)" fill-rule="evenodd" id="path4078"/>
  </g>
 </g>
</svg>